<svg xmlns="http://www.w3.org/2000/svg" viewBox="0 0 24 24" fill="none" stroke="currentColor" stroke-width="1.5" stroke-linecap="round" stroke-linejoin="round">
  <circle cx="12" cy="12" r="10"/>
  <!-- Costuras izquierda -->
  <path d="M7 4.5C8.5 6 8.5 10 7 12"/>
  <path d="M5.5 5.5C7 7 7 11 5.5 13"/>
  <!-- Costuras derecha -->
  <path d="M17 4.5C15.5 6 15.5 10 17 12"/>
  <path d="M18.5 5.5C17 7 17 11 18.5 13"/>
  <!-- Costuras inferiores -->
  <path d="M7 12C8.5 14 8.5 18 7 19.5"/>
  <path d="M5.5 11C7 13 7 17 5.5 18.5"/>
  <path d="M17 12C15.5 14 15.5 18 17 19.5"/>
  <path d="M18.5 11C17 13 17 17 18.5 18.5"/>
</svg>