<svg xmlns="http://www.w3.org/2000/svg" viewBox="0 0 24 24" fill="none" stroke="currentColor" stroke-width="1.5" stroke-linecap="round" stroke-linejoin="round">
  <!-- Cuerpo del caballo simplificado -->
  <path d="M3 17c1-2 2-3 4-3l2-4c1-2 3-3 5-3h2l1-2 2-1"/>
  <path d="M9 14l1-3"/>
  <!-- Cabeza -->
  <path d="M16 7c1 0 2 .5 2.5 1.5L20 11l-2 1-1.5-2.5"/>
  <path d="M18.5 8.5l1.5-2"/>
  <!-- Patas -->
  <path d="M7 14v4M10 14v3M13 11v3M15 10v3"/>
  <!-- Jockey simplificado -->
  <circle cx="14" cy="8" r="1.5"/>
  <path d="M13 9.5l-1 2h3l-1-2"/>
</svg>