<svg xmlns="http://www.w3.org/2000/svg" viewBox="0 0 24 24" fill="none" stroke="currentColor" stroke-width="1.5" stroke-linecap="round" stroke-linejoin="round">
  <circle cx="12" cy="12" r="10"/>
  <path d="M12 2a10 10 0 0 1 6.32 2.26L14 8H10L5.68 4.26A10 10 0 0 1 12 2z" fill="currentColor" opacity="0.15"/>
  <polygon points="12,6 14,8 13,11 11,11 10,8" fill="currentColor" opacity="0.8"/>
  <polygon points="6.5,14 8.5,13 10,15 9,18 6.5,18" fill="currentColor" opacity="0.8"/>
  <polygon points="17.5,14 15.5,13 14,15 15,18 17.5,18" fill="currentColor" opacity="0.8"/>
  <path d="M12 2v4M5.68 4.26L8.5 7M18.32 4.26L15.5 7"/>
  <path d="M2 12h3.5M18.5 12H22M6.5 18l2-3M17.5 18l-2-3"/>
</svg>